<svg width="32" height="32" viewBox="0 0 32 32" fill="none" xmlns="http://www.w3.org/2000/svg">
<path d="M13.3333 10.6667C12.9555 10.6667 12.639 10.5387 12.3839 10.2827C12.1288 10.0267 12.0008 9.71023 11.9999 9.33334C11.999 8.95645 12.127 8.64001 12.3839 8.38401C12.6408 8.12801 12.9573 8.00001 13.3333 8.00001H18.6666C19.0444 8.00001 19.3613 8.12801 19.6173 8.38401C19.8733 8.64001 20.0008 8.95645 19.9999 9.33334C19.999 9.71023 19.871 10.0271 19.6159 10.284C19.3608 10.5409 19.0444 10.6684 18.6666 10.6667H13.3333ZM9.33326 29.3333C8.59992 29.3333 7.97237 29.0725 7.45059 28.5507C6.92881 28.0289 6.66748 27.4009 6.66659 26.6667C6.6657 25.9324 6.92703 25.3049 7.45059 24.784C7.97415 24.2631 8.6017 24.0018 9.33326 24C10.0648 23.9982 10.6928 24.2596 11.2173 24.784C11.7417 25.3084 12.0026 25.936 11.9999 26.6667C11.9973 27.3973 11.7364 28.0253 11.2173 28.5507C10.6981 29.076 10.0701 29.3369 9.33326 29.3333ZM22.6666 29.3333C21.9333 29.3333 21.3057 29.0725 20.7839 28.5507C20.2621 28.0289 20.0008 27.4009 19.9999 26.6667C19.999 25.9324 20.2604 25.3049 20.7839 24.784C21.3075 24.2631 21.935 24.0018 22.6666 24C23.3981 23.9982 24.0261 24.2596 24.5506 24.784C25.075 25.3084 25.3359 25.936 25.3333 26.6667C25.3306 27.3973 25.0697 28.0253 24.5506 28.5507C24.0315 29.076 23.4035 29.3369 22.6666 29.3333ZM3.99992 5.33334H2.66659C2.28881 5.33334 1.97237 5.20534 1.71726 4.94934C1.46215 4.69334 1.33415 4.37689 1.33326 4.00001C1.33237 3.62312 1.46037 3.30667 1.71726 3.05067C1.97415 2.79467 2.29059 2.66667 2.66659 2.66667H4.86659C5.11103 2.66667 5.34437 2.73334 5.56659 2.86667C5.78881 3.00001 5.95548 3.18889 6.06659 3.43334L11.3666 14.6667H20.6999L25.5333 6.00001C25.6444 5.77778 25.7999 5.61112 25.9999 5.50001C26.1999 5.38889 26.4221 5.33334 26.6666 5.33334C27.1777 5.33334 27.5613 5.55023 27.8173 5.984C28.0733 6.41778 28.0786 6.85645 27.8333 7.3L23.0666 15.9333C22.8221 16.3778 22.4946 16.7222 22.0839 16.9667C21.6733 17.2111 21.223 17.3333 20.7333 17.3333H10.7999L9.33326 20H23.9999C24.3777 20 24.6946 20.128 24.9506 20.384C25.2066 20.64 25.3341 20.9564 25.3333 21.3333C25.3324 21.7102 25.2044 22.0271 24.9493 22.284C24.6941 22.5409 24.3777 22.6684 23.9999 22.6667H9.33326C8.33326 22.6667 7.57192 22.2333 7.04926 21.3667C6.52659 20.5 6.51015 19.6222 6.99992 18.7333L8.79992 15.4667L3.99992 5.33334Z" fill="black"/>
</svg>
