<svg width="98" height="14" viewBox="0 0 98 14" fill="none" xmlns="http://www.w3.org/2000/svg">
<path d="M2.883 14L4.123 8.82236L0 5.34136L5.431 4.88334L7.558 0L9.685 4.88236L15.115 5.34039L10.992 8.82138L12.233 13.999L7.558 11.2509L2.883 14Z" fill="#FE8403"/>
<path d="M23.3674 14L24.6074 8.82236L20.4844 5.34136L25.9154 4.88334L28.0424 0L30.1694 4.88236L35.5994 5.34039L31.4764 8.82138L32.7174 13.999L28.0424 11.2509L23.3674 14Z" fill="#FE8403"/>
<path d="M43.852 14L45.092 8.82236L40.969 5.34136L46.4 4.88334L48.527 0L50.654 4.88236L56.084 5.34039L51.961 8.82138L53.202 13.999L48.527 11.2509L43.852 14Z" fill="#FE8403"/>
<path d="M64.3364 14L65.5764 8.82236L61.4534 5.34136L66.8844 4.88334L69.0114 0L71.1384 4.88236L76.5684 5.34039L72.4454 8.82138L73.6864 13.999L69.0114 11.2509L64.3364 14Z" fill="#FE8403"/>
<path d="M84.821 14L86.061 8.82236L81.938 5.34136L87.369 4.88334L89.496 0L91.623 4.88236L97.053 5.34039L92.93 8.82138L94.171 13.999L89.496 11.2509L84.821 14Z" fill="#FE8403"/>
</svg>
