<svg width="25" height="24" viewBox="0 0 25 24" fill="none" xmlns="http://www.w3.org/2000/svg">
<path fill-rule="evenodd" clip-rule="evenodd" d="M17.4286 23.9997V14.7059H20.5485L21.0153 11.0844H17.4274V8.77203C17.4274 7.72326 17.719 7.00807 19.2237 7.00807H21.1413V3.76815C20.2127 3.66838 19.2793 3.62031 18.3454 3.62416C15.5806 3.62416 13.6883 5.31252 13.6883 8.41204V11.0844H10.5588V14.7059H13.6871V23.9997H2.28375C1.55177 23.9997 0.958984 23.4069 0.958984 22.6749V1.32501C0.958984 0.59303 1.55177 0.000244141 2.28375 0.000244141H23.6336C24.3656 0.000244141 24.9584 0.59303 24.9584 1.32501V22.6749C24.9584 23.4069 24.3656 23.9997 23.6336 23.9997H17.4286Z" fill="black"/>
</svg>
