<svg width="25" height="24" viewBox="0 0 25 24" fill="none" xmlns="http://www.w3.org/2000/svg">
<path d="M14.1923 0C15.5423 0.00359991 16.2275 0.0107997 16.8191 0.0275993L17.0519 0.0359991C17.3207 0.0455989 17.5859 0.0575985 17.9062 0.0719982C19.183 0.131997 20.0542 0.333592 20.8186 0.629985C21.6106 0.934777 22.2777 1.34757 22.9449 2.01355C23.5553 2.61322 24.0275 3.33889 24.3285 4.1399C24.6249 4.90428 24.8265 5.77546 24.8865 7.05343C24.9009 7.37262 24.9129 7.63782 24.9225 7.90781L24.9297 8.1406C24.9477 8.73099 24.9549 9.41617 24.9573 10.7661L24.9585 11.6613V13.2333C24.9614 14.1085 24.9522 14.9838 24.9309 15.8588L24.9237 16.0916C24.9141 16.3616 24.9021 16.6268 24.8877 16.946C24.8277 18.224 24.6237 19.0939 24.3285 19.8595C24.0275 20.6605 23.5553 21.3862 22.9449 21.9859C22.3453 22.5963 21.6196 23.0685 20.8186 23.3694C20.0542 23.6658 19.183 23.8674 17.9062 23.9274L17.0519 23.9634L16.8191 23.9706C16.2275 23.9874 15.5423 23.9958 14.1923 23.9982L13.2972 23.9994H11.7264C10.8507 24.0025 9.97507 23.9933 9.09966 23.9718L8.86687 23.9646C8.582 23.9538 8.29721 23.9414 8.01249 23.9274C6.73572 23.8674 5.86454 23.6658 5.09896 23.3694C4.29837 23.0683 3.57312 22.5961 2.97381 21.9859C2.36296 21.3863 1.89036 20.6606 1.58904 19.8595C1.29265 19.0951 1.09105 18.224 1.03105 16.946L0.995056 16.0916L0.989056 15.8588C0.966936 14.9838 0.956935 14.1086 0.959057 13.2333V10.7661C0.955735 9.89088 0.964536 9.01562 0.985456 8.1406L0.993856 7.90781C1.00346 7.63782 1.01546 7.37262 1.02985 7.05343C1.08985 5.77546 1.29145 4.90548 1.58784 4.1399C1.88987 3.33856 2.36329 2.61286 2.97501 2.01355C3.57398 1.40342 4.2988 0.931266 5.09896 0.629985C5.86454 0.333592 6.73452 0.131997 8.01249 0.0719982C8.33168 0.0575985 8.59807 0.0455989 8.86687 0.0359991L9.09966 0.0287992C9.97467 0.00747907 10.8499 -0.0017216 11.7252 0.00119988L14.1923 0ZM12.9588 5.99986C11.3675 5.99986 9.84142 6.63198 8.71623 7.75717C7.59104 8.88236 6.95891 10.4084 6.95891 11.9997C6.95891 13.591 7.59104 15.1171 8.71623 16.2422C9.84142 17.3674 11.3675 17.9996 12.9588 17.9996C14.55 17.9996 16.0761 17.3674 17.2013 16.2422C18.3265 15.1171 18.9586 13.591 18.9586 11.9997C18.9586 10.4084 18.3265 8.88236 17.2013 7.75717C16.0761 6.63198 14.55 5.99986 12.9588 5.99986ZM12.9588 8.3998C13.4315 8.39972 13.8996 8.49275 14.3364 8.67359C14.7732 8.85443 15.1701 9.11954 15.5045 9.45376C15.8388 9.78799 16.104 10.1848 16.285 10.6215C16.466 11.0583 16.5592 11.5264 16.5593 11.9991C16.5594 12.4719 16.4663 12.94 16.2855 13.3768C16.1046 13.8136 15.8395 14.2105 15.5053 14.5448C15.1711 14.8791 14.7743 15.1444 14.3375 15.3254C13.9008 15.5064 13.4327 15.5995 12.96 15.5996C12.0052 15.5996 11.0896 15.2203 10.4144 14.5452C9.73933 13.8701 9.36005 12.9545 9.36005 11.9997C9.36005 11.045 9.73933 10.1293 10.4144 9.45419C11.0896 8.77907 12.0052 8.3998 12.96 8.3998M19.2598 4.1999C18.862 4.1999 18.4805 4.35793 18.1992 4.63923C17.9179 4.92053 17.7598 5.30205 17.7598 5.69986C17.7598 6.09768 17.9179 6.4792 18.1992 6.7605C18.4805 7.04179 18.862 7.19983 19.2598 7.19983C19.6576 7.19983 20.0392 7.04179 20.3204 6.7605C20.6017 6.4792 20.7598 6.09768 20.7598 5.69986C20.7598 5.30205 20.6017 4.92053 20.3204 4.63923C20.0392 4.35793 19.6576 4.1999 19.2598 4.1999Z" fill="black"/>
</svg>
