<svg width="24" height="24" viewBox="0 0 24 24" fill="none" xmlns="http://www.w3.org/2000/svg">
<path d="M22.1944 0.000167793H1.86686C1.63836 -0.00300568 1.41147 0.0388639 1.19916 0.123385C0.98684 0.207907 0.793252 0.333424 0.629449 0.49277C0.465647 0.652116 0.334837 0.842169 0.244492 1.05207C0.154147 1.26198 0.106035 1.48763 0.102905 1.71613V22.2836C0.106035 22.5121 0.154147 22.7378 0.244492 22.9477C0.334837 23.1576 0.465647 23.3476 0.629449 23.507C0.793252 23.6663 0.98684 23.7918 1.19916 23.8764C1.41147 23.9609 1.63836 24.0028 1.86686 23.9996H22.1944C22.4229 24.0028 22.6498 23.9609 22.8621 23.8764C23.0744 23.7918 23.268 23.6663 23.4318 23.507C23.5956 23.3476 23.7264 23.1576 23.8167 22.9477C23.9071 22.7378 23.9552 22.5121 23.9583 22.2836V1.71613C23.9552 1.48763 23.9071 1.26198 23.8167 1.05207C23.7264 0.842169 23.5956 0.652116 23.4318 0.49277C23.268 0.333424 23.0744 0.207907 22.8621 0.123385C22.6498 0.0388639 22.4229 -0.00300568 22.1944 0.000167793ZM7.33873 20.0877H3.73882V9.28794H7.33873V20.0877ZM5.53877 7.77598C5.0423 7.77598 4.56616 7.57876 4.2151 7.2277C3.86404 6.87664 3.66682 6.4005 3.66682 5.90403C3.66682 5.40755 3.86404 4.93141 4.2151 4.58035C4.56616 4.22929 5.0423 4.03207 5.53877 4.03207C5.8024 4.00217 6.06937 4.0283 6.32221 4.10873C6.57504 4.18916 6.80803 4.32209 7.00593 4.49881C7.20382 4.67554 7.36216 4.89206 7.47057 5.13422C7.57898 5.37638 7.63502 5.63871 7.63502 5.90403C7.63502 6.16934 7.57898 6.43167 7.47057 6.67383C7.36216 6.91599 7.20382 7.13252 7.00593 7.30924C6.80803 7.48596 6.57504 7.61889 6.32221 7.69932C6.06937 7.77975 5.8024 7.80588 5.53877 7.77598ZM20.3224 20.0877H16.7225V14.2918C16.7225 12.8399 16.2065 11.8919 14.8985 11.8919C14.4938 11.8948 14.0996 12.0218 13.7692 12.2557C13.4388 12.4895 13.188 12.8191 13.0506 13.1998C12.9567 13.4819 12.916 13.7789 12.9306 14.0758V20.0757H9.33068V9.27594H12.9306V10.7999C13.2576 10.2324 13.7333 9.76495 14.3063 9.44778C14.8793 9.13061 15.528 8.97577 16.1825 8.99995C18.5825 8.99995 20.3224 10.5479 20.3224 13.8718V20.0877Z" fill="black"/>
</svg>
