<svg width="24" height="24" viewBox="0 0 24 24" fill="none" xmlns="http://www.w3.org/2000/svg">
<path d="M21.3751 5.80816C17.9192 0.480293 10.8634 -1.10367 5.39154 2.20825C0.0636653 5.52017 -1.66429 12.72 1.79162 18.0479L2.07962 18.4799L0.927645 22.7998L5.24754 21.6478L5.67953 21.9358C7.55148 22.9437 9.56744 23.5197 11.5834 23.5197C13.7433 23.5197 15.9033 22.9437 17.7752 21.7918C23.1031 18.3359 24.6871 11.28 21.3751 5.80816ZM18.3512 16.8959C17.7752 17.7599 17.0553 18.3359 16.0473 18.4799C15.4713 18.4799 14.7513 18.7678 11.8714 17.6159C9.42344 16.4639 7.40749 14.592 5.96752 12.432C5.10354 11.424 4.67155 10.1281 4.52756 8.83209C4.52756 7.68012 4.95955 6.67214 5.67953 5.95216C5.96752 5.66417 6.25552 5.52017 6.54351 5.52017H7.26349C7.55148 5.52017 7.83948 5.52017 7.98347 6.09616C8.27147 6.81614 8.99145 8.5441 8.99145 8.68809C9.13545 8.83209 9.13545 9.12008 8.99145 9.26408C9.13545 9.55207 8.99145 9.84007 8.84745 9.98406C8.70346 10.1281 8.55946 10.4161 8.41546 10.56C8.12747 10.704 7.98347 10.992 8.12747 11.28C8.70346 12.144 9.42344 13.008 10.1434 13.728C11.0074 14.448 11.8714 15.0239 12.8794 15.4559C13.1673 15.5999 13.4553 15.5999 13.5993 15.3119C13.7433 15.0239 14.4633 14.304 14.7513 14.016C15.0393 13.728 15.1833 13.728 15.4713 13.872L17.7752 15.0239C18.0632 15.1679 18.3512 15.3119 18.4952 15.4559C18.6392 15.8879 18.6392 16.4639 18.3512 16.8959Z" fill="black"/>
</svg>
